<?xml version="1.0" standalone="no"?>
<!DOCTYPE svg PUBLIC "-//W3C//DTD SVG 20010904//EN"
 "http://www.w3.org/TR/2001/REC-SVG-20010904/DTD/svg10.dtd">
<svg version="1.0" xmlns="http://www.w3.org/2000/svg"
 width="124.000000pt" height="124.000000pt" viewBox="0 0 124.000000 124.000000"
 preserveAspectRatio="xMidYMid meet">
<metadata>
Created by potrace 1.14, written by Peter Selinger 2001-2017
</metadata>
<g transform="translate(0.000000,124.000000) scale(0.100000,-0.100000)"
fill="#000000" stroke="none">
<path d="M47 848 c-8 -5 -12 -77 -12 -238 l0 -230 58 0 57 0 0 73 0 73 49 0
c104 2 156 25 187 85 34 66 10 170 -49 213 -24 18 -48 22 -154 26 -69 3 -130
2 -136 -2z m213 -106 c28 -23 30 -77 3 -103 -16 -16 -61 -25 -100 -20 -9 1
-13 22 -13 71 l0 70 44 0 c28 0 52 -7 66 -18z"/>
<path d="M621 731 c-2 -89 -2 -91 21 -91 23 0 23 3 23 88 0 81 -2 87 -21 90
-20 3 -21 -1 -23 -87z"/>
<path d="M859 808 c-1 -7 -1 -17 0 -21 1 -4 -6 -10 -14 -13 -17 -7 -20 -31 -4
-36 5 -2 12 -17 13 -33 5 -52 16 -65 50 -65 22 0 33 5 33 15 0 8 -6 15 -13 15
-19 0 -33 32 -23 55 4 11 8 16 8 11 1 -5 8 -3 16 4 18 15 11 30 -14 30 -12 0
-17 7 -17 22 1 24 -33 40 -35 16z"/>
<path d="M486 754 c-24 -23 -20 -26 24 -19 26 4 40 3 40 -4 0 -6 -9 -11 -21
-11 -34 0 -59 -19 -59 -45 0 -23 31 -43 55 -36 6 2 23 4 40 5 29 1 30 1 27 55
-1 31 -7 58 -14 63 -22 13 -76 9 -92 -8z m64 -64 c0 -12 -28 -25 -36 -17 -9 9
6 27 22 27 8 0 14 -5 14 -10z"/>
<path d="M704 753 c-16 -16 -16 -18 -1 -21 9 -2 25 1 35 7 19 10 32 6 32 -11
0 -4 -10 -8 -23 -8 -35 0 -59 -22 -55 -51 3 -22 8 -24 61 -26 52 -2 57 0 58
20 2 44 -3 82 -13 95 -15 18 -74 15 -94 -5z m66 -63 c0 -13 -28 -25 -38 -16
-3 4 0 11 8 16 20 13 30 12 30 0z"/>
<path d="M966 748 c-35 -49 -8 -108 48 -108 31 0 66 16 66 30 0 13 -47 13 -55
0 -8 -13 -25 -3 -25 13 0 9 13 11 40 9 37 -4 40 -2 40 20 0 55 -83 80 -114 36z
m74 -18 c0 -5 -9 -10 -20 -10 -11 0 -20 5 -20 10 0 6 9 10 20 10 11 0 20 -4
20 -10z"/>
<path d="M890 549 c0 -25 33 -22 38 4 2 12 -3 17 -17 17 -15 0 -21 -6 -21 -21z"/>
<path d="M815 531 c2 -27 1 -29 -22 -20 -33 12 -60 -4 -68 -41 -13 -59 41
-113 81 -80 10 9 14 9 14 1 0 -6 9 -11 20 -11 19 0 20 7 20 90 0 88 -1 90 -24
90 -20 0 -23 -4 -21 -29z m-1 -67 c8 -20 -12 -56 -27 -51 -7 2 -13 18 -15 35
-3 26 0 32 16 32 11 0 23 -7 26 -16z"/>
<path d="M358 509 c-19 -11 -25 -39 -8 -39 6 0 19 5 30 12 10 7 22 9 26 6 11
-12 -7 -28 -30 -28 -30 0 -48 -22 -44 -52 3 -21 8 -23 64 -25 l60 -1 -3 56
c-2 40 -8 61 -20 70 -20 14 -52 15 -75 1z m52 -81 c0 -11 -29 -23 -36 -15 -3
3 -4 10 0 15 7 11 36 11 36 0z"/>
<path d="M480 449 c0 -67 1 -70 22 -67 18 2 23 10 24 43 2 56 2 55 24 55 13 0
20 7 20 20 0 22 -20 26 -38 8 -7 -7 -12 -8 -12 -2 0 5 -9 10 -20 11 -18 2 -20
-4 -20 -68z"/>
<path d="M596 505 c-16 -12 -17 -18 -8 -27 10 -10 17 -10 32 0 26 16 30 15 30
-3 0 -9 -9 -15 -24 -15 -14 0 -32 -7 -40 -16 -19 -18 -19 -20 -6 -45 12 -22
65 -27 73 -6 4 10 6 10 6 0 1 -7 10 -13 21 -13 17 0 20 7 20 53 0 28 -4 58 -8
65 -13 20 -74 25 -96 7z m64 -75 c0 -12 -28 -25 -36 -17 -9 9 6 27 22 27 8 0
14 -5 14 -10z"/>
<path d="M889 513 c0 -4 -1 -36 -2 -71 -2 -58 -1 -62 21 -62 22 0 23 3 20 67
-2 55 -6 68 -20 71 -10 2 -18 0 -19 -5z"/>
<path d="M970 500 c-31 -31 -3 -70 50 -70 12 0 18 -5 15 -10 -4 -6 -23 -7 -47
-4 -39 7 -40 6 -29 -15 9 -15 21 -21 47 -21 48 0 74 16 74 45 0 20 -7 26 -40
35 -22 6 -40 15 -40 20 0 13 23 13 37 -1 7 -7 17 -8 28 -1 16 8 15 11 -6 26
-31 22 -65 20 -89 -4z"/>
<path d="M1123 503 c-12 -10 -23 -25 -24 -33 -7 -60 15 -90 66 -90 34 0 70 24
60 40 -3 5 -17 5 -32 -1 -15 -5 -32 -8 -40 -5 -17 7 -17 27 0 25 45 -6 77 2
77 19 0 49 -69 78 -107 45z m57 -28 c11 -13 8 -15 -13 -15 -19 0 -25 4 -21 15
4 8 10 15 14 15 4 0 13 -7 20 -15z"/>
</g>
</svg>
